<svg id="Layer_1" data-name="Layer 1" xmlns="http://www.w3.org/2000/svg" viewBox="0 0 1187.2 240"><defs><style>.cls-1{fill:#fff;}</style></defs><path class="cls-1" d="M9.2,82.42c1-2.08.81-4.37,1.18-6.56a89.66,89.66,0,0,1,11-30.55,82.19,82.19,0,0,1,19-22c5.76-4.74,12.2-8,18.92-11C78.85,3.64,98.74,4,118.59,10.59a72.72,72.72,0,0,1,21,10.94,89,89,0,0,1,19.57,20.64,15.52,15.52,0,0,1,1,2c.72,1.44,2.68,2.83,2,4.22s-2.69,1.79-4.08,2.71c-6.35,4.23-12.89,8.16-19.4,12.13-1.63,1-2.35,1-3.38-.8a56.49,56.49,0,0,0-15.93-18.08A44.06,44.06,0,0,0,99.2,36.52c-11.7-1.69-23-.2-33.29,5.83a52.93,52.93,0,0,0-25.51,34,58.25,58.25,0,0,0,1.79,35.11c4.84,13,13.28,22.76,26,29,14.32,7,29,7.58,43.36,1.72,10.71-4.35,18.54-12.52,23.07-23.44a56.29,56.29,0,0,0,3.06-8.49h-2.58c-15.31,0-30.62,0-45.93,0-1.78,0-2.27-.43-2.25-2.22.11-8.5.08-17,0-25.5,0-1.46.32-1.93,1.87-1.93q39.42.07,78.85,0c1.42,0,2,.26,2,1.84.08,12.23-.09,24.41-3.61,36.3a85.1,85.1,0,0,1-7.82,18.78,79.28,79.28,0,0,1-21.59,24.22,75.29,75.29,0,0,1-21,10.5c-14.33,4.89-28.89,4.79-43.38,1.55A74.22,74.22,0,0,1,47.2,163.54a81.19,81.19,0,0,1-22.32-21.35,88.32,88.32,0,0,1-15.2-41.3c-.06-.55.25-1.25-.48-1.62Z"/><path class="cls-1" d="M949,30.21A135.39,135.39,0,0,1,938.12,39q-5.83,4.5-11.5,9.18c-1.09.89-1.61.84-2.41-.36A30.16,30.16,0,0,0,901.79,33.9c-5.63-.68-11.24-.56-16.64,1.59C876.3,39,872.86,48.41,874.77,56.4c.59,2.51,2.3,4.36,4,6.22,3.78,4.09,8.68,6.17,13.77,7.94,4.52,1.56,9.17,2.79,13.57,4.62,7.11,2.94,14.54,5.14,21.33,8.77a51.68,51.68,0,0,1,16.36,13.1,40.71,40.71,0,0,1,8.82,25c.34,13.49-3.63,25.5-12.46,35.82-6.16,7.21-14,11.76-22.91,14.95-13.11,4.7-26.36,3.89-39.46,1a58.65,58.65,0,0,1-23.05-10.24c-6.53-5-13.15-9.9-18.3-16.45-.87-1.11-.2-1.35.43-1.86,5.1-4.17,10.2-8.32,15.28-12.5,3.08-2.54,6.16-5.1,9.19-7.71.94-.81,1.53-1,2.19.3,3.55,6.91,9.05,12.09,15.44,16.24,5.74,3.73,12.37,4.9,19.2,4.8a29.38,29.38,0,0,0,9.18-1.55,21.31,21.31,0,0,0,13.67-25.24c-1.21-4.54-4.76-7-8.33-9.5-6.69-4.76-14.59-6.45-22.16-8.94s-14.69-5.48-22-8.41c-7.57-3-13.51-8.34-18.2-14.9-6.09-8.51-7.47-18.27-6.7-28.38a44.15,44.15,0,0,1,11.23-26.25A47.72,47.72,0,0,1,868.07,13c18.1-10,36.82-8.76,55.44-2.13a49.37,49.37,0,0,1,17.28,10.6C943.69,24.16,946.25,27.26,949,30.21Z"/><path class="cls-1" d="M1016,173.91c-16.08,0-32.15,0-48.23,0-1.72,0-2.32-.35-2.3-2.18.1-9.72,0-19.43.1-29.15a46.06,46.06,0,0,1,5-20.31c4.59-9.18,11.21-16.6,18.88-23.32,4.58-4,9.75-7.16,14.43-11s10.29-6.94,15-10.89c3.77-3.13,7.94-5.86,11.11-9.63,3.86-4.6,7.48-9.32,7.29-15.89a18.75,18.75,0,0,0-15.14-18.27c-1.68-.33-3.26-1.05-5-1.08-8.9-.11-16.4,3-21.82,10-2.91,3.81-5.65,7.86-7.12,12.54-.32,1-.74,1.37-1.76.71-6.8-4.4-14.34-7.41-21.42-11.28-.63-.34-1.11-1-1.76-1.27-1-.4-1-.84-.57-1.71,3-5.87,6.21-11.56,10.59-16.59a60.54,60.54,0,0,1,15.68-12.54c10.19-5.92,21.23-6.65,32.55-6a47.09,47.09,0,0,1,17.48,4c6.1,2.83,12.08,6.11,16.61,11.21,10.61,12,13.83,26,10.59,41.43-1.85,8.81-6.57,16.1-12.59,22.76-3.9,4.32-8.51,7.7-12.88,11.42-4.57,3.89-9.76,6.88-14.45,10.55-4.36,3.41-9.25,6.07-13.43,9.65-5.48,4.7-11.21,9.22-14.71,15.82a24,24,0,0,0-3,9.2c-.17,1.86.43,2.22,2.19,2.22,22.17-.06,44.34,0,66.51-.1,2.36,0,3,.56,2.94,2.92-.17,8-.13,16.09,0,24.14,0,2-.4,2.67-2.59,2.66C1048.19,173.87,1032.11,173.91,1016,173.91Z"/><path class="cls-1" d="M648.5,40.94c10.17,0,20.07,0,30,0,1.55,0,1.65,1,2,1.94,4.69,11.88,9.33,23.77,14,35.63,5.28,13.28,10.63,26.52,15.94,39.78,1.54,3.84,3,7.7,4.78,12.12,4.22-11.38,8.2-22.15,12.23-32.9,2.37-6.3,4.85-12.56,7.21-18.86,4.48-12,8.9-23.94,13.37-35.9.29-.75.3-1.8,1.67-1.79,9.89,0,19.78,0,29.85,0-.55,1.6-1,3-1.51,4.42q-8,20.14-15.93,40.28-6.4,16.23-12.77,32.5Q741,139.56,732.57,161q-6.45,16.45-12.91,32.91c-5,12.81-10,25.62-15,38.46a2.31,2.31,0,0,1-2.6,1.77c-9.21-.07-18.42,0-27.93,0,2-5,3.89-9.86,5.8-14.69q8.89-22.46,17.79-44.9a10.2,10.2,0,0,1,.64-1.91c2.76-4,1.51-7.7-.19-11.65-5.74-13.41-11.32-26.89-16.93-40.35-4.48-10.74-8.9-21.5-13.35-32.25s-9-21.44-13.33-32.24C652.6,51.12,650.16,46.32,648.5,40.94Z"/><path class="cls-1" d="M1158.26,88.2c.94.6,1.8,1.09,2.6,1.65,10.63,7.46,16.46,17.7,17.82,30.54a54.93,54.93,0,0,1-6.24,32.05,26.29,26.29,0,0,1-1.48,2.29c-6,8.8-14.17,14.37-24.16,17.94-12.63,4.51-25.4,4.24-38.08,1.42-8.15-1.8-16.14-4.85-22.66-10.41a87.71,87.71,0,0,1-10.12-9.73c-.64-.77-.54-1.06.13-1.78a19.87,19.87,0,0,1,2.68-2.35c6.66-5.11,13.37-10.17,20-15.35,1.5-1.19,2.23-1.4,3.51.42,4.58,6.51,10.35,11.43,18.66,12.47a33.4,33.4,0,0,0,14.23-1c10.83-3.34,16.1-14.28,13.68-25.84-.94-4.52-3.52-7.84-6.81-11-5.22-5-11.58-6.32-18.34-6.59-5.32-.21-10.66-.11-16,0-1.54,0-1.86-.45-1.85-1.89q.11-12.42,0-24.82c0-1.56.49-1.87,1.94-1.87,6.24,0,12.5.29,18.73-.2s11.88-2.22,15.9-7.28c7.87-9.9,6.14-23.92-2.2-29.71a21.9,21.9,0,0,0-10.1-3.89c-1.64-.19-3.09-1.08-4.82-.93-8.11.71-15.51,2.84-20.57,9.82a46,46,0,0,0-3.21,5.18c-.54,1-1,1-1.93.51-7.68-4-15.12-8.53-23-12.28-.8-.38-.93-.71-.51-1.55a36.54,36.54,0,0,1,2.69-4.7,53.76,53.76,0,0,1,19-16.81c17-9,34.31-8.45,51.66-1.89A38.85,38.85,0,0,1,1165,21.35c8.59,9.91,11.9,21.57,11,34.5A40.8,40.8,0,0,1,1160.38,86,25.38,25.38,0,0,0,1158.26,88.2Z"/><path class="cls-1" d="M580.58,129.52c-.74,1.1-1.42,2.15-2.13,3.19-6.63,9.59-13.37,19.11-19.85,28.79-2.61,3.9-5.4,7.67-8,11.57-.37.55-.6.86-1.32.86q-17.13,0-34.27-.05c-.12,0-.24-.14-.37-.22-.13-.69.39-1.11.73-1.58,4.37-6.08,8.79-12.14,13.15-18.24,5.37-7.5,10.77-15,16-22.57,5-7.15,9.94-14.28,15.1-21.28.67-.91,1.13-2,1.82-2.84a1.62,1.62,0,0,0,0-2.33c-3.59-4.88-7.09-9.81-10.61-14.74-5.72-8-11.5-16-17.11-24-4.78-6.89-9.58-13.77-14.55-20.53-1-1.38-1.85-2.87-3-4.59h4.05c9.9,0,19.8,0,29.71,0a3.21,3.21,0,0,1,3.29,1.75c2.48,4.7,6,8.69,8.86,13.15,4.08,6.37,8.7,12.4,12.93,18.68,1.89,2.82,3.75,5.65,5.78,8.39.87-.39,1.19-1.21,1.65-1.87,5.79-8.42,11.73-16.74,17.28-25.3,2.88-4.44,6.32-8.49,8.85-13.16.44-.81.89-1.64,2.19-1.63,11.11.05,22.22,0,33.59,0-.88,1.46-1.57,2.77-2.41,4-4.36,6.19-8.83,12.31-13.12,18.54-5.19,7.54-10.47,15-15.73,22.51-4.46,6.37-8.75,12.87-13.37,19.13a1.73,1.73,0,0,0-.07,2.5c4.76,6.44,9.41,13,14.12,19.44,5.74,7.89,11.58,15.71,17.24,23.66,5,7,10,14,15.2,20.92.44.58,1.36,1.15,1,1.9-.42.91-1.49.37-2.25.38-10.51,0-21,0-31.53.05a2.43,2.43,0,0,1-2.33-1.21c-4.67-6.62-9.52-13.11-14.14-19.77-5-7.27-10-14.56-15.34-21.64C581.31,130.74,581.36,129.82,580.58,129.52Z"/><path class="cls-1" d="M331.13,89.7c0-27.17,0-54.34-.05-81.51,0-1.93.5-2.36,2.38-2.34q12.68.17,25.37,0c1.59,0,2,.37,2,2q-.07,81.86,0,163.71c0,1.8-.32,2.45-2.32,2.42q-12.45-.19-24.91,0c-2.1,0-2.5-.6-2.49-2.52Q331.17,130.57,331.13,89.7Z"/><path class="cls-1" d="M314.45,42.81c0-1.46-.33-1.92-1.87-1.91-8.54.08-17.07.1-25.6,0-1.81,0-2.1.58-2.06,2.19.1,4.43,0,8.86,0,13.46-1.51-.7-1.84-2-2.71-2.93a47.9,47.9,0,0,0-16.66-11.12c-15.93-6.23-31.83-5.77-47.39,1.75-6.44,3.12-12.59,6.57-17.5,11.93A80.94,80.94,0,0,0,192.64,66c-7.52,11.23-11,23.6-11.65,37-.67,14.76,1.81,28.79,9.28,41.74a69,69,0,0,0,16.2,18.78,57.06,57.06,0,0,0,21.28,10.79c12.16,3.34,24.37,3.38,36.25-1.9,5.12-2.26,10-4.79,14.2-8.5,2.32-2.08,4.3-4.55,6.75-7.19,0,5.32.06,10.22,0,15.11,0,1.62.34,2.2,2.13,2.18q12.56-.17,25.13,0c1.85,0,2.28-.53,2.28-2.28Q314.4,107.25,314.45,42.81Zm-33.83,86.31a41.55,41.55,0,0,1-9.3,11c-6.63,5.83-14.53,7.75-23,8a34.29,34.29,0,0,1-18.76-4.88c-10.68-6.61-17.21-16.18-19.07-28.64-1.72-11.47-.08-22.37,6.75-32.07A37.87,37.87,0,0,1,271.14,74c7.52,5.83,12.1,13.86,14.21,23.11A43.91,43.91,0,0,1,280.62,129.12Z"/><path class="cls-1" d="M507.19,42.82c0-1.69-.55-1.93-2.06-1.92-7.69.08-15.39,0-23.08,0-4.26,0-4.26,0-4.26,4.19V56.74c-1.46-.91-1.86-2.21-2.75-3.12a47.08,47.08,0,0,0-15.83-10.75C443,36.15,426.73,36.6,410.8,44.34c-6.3,3-12.17,6.57-17.18,11.63a67.17,67.17,0,0,0-14,20.73c-6.77,15.59-7.47,31.76-4.16,48.15,3.18,15.75,11.52,28.55,23.92,38.74a57.39,57.39,0,0,0,20,10.32c11.92,3.58,23.93,3.77,35.85-.93A54,54,0,0,0,477.79,157c0,5,.07,10,0,14.95,0,1.63.48,2,2.05,2,8.38-.08,16.76-.1,25.14,0,1.85,0,2.24-.54,2.24-2.27Q507.12,107.25,507.19,42.82ZM467,137.6c-12.93,13.59-34.17,13.13-46.46,4.61s-18-20.48-17.87-40.92c.05-6,3.88-15.92,12.21-24.42,12.33-12.58,35.66-14.56,50.26-1.92A40.29,40.29,0,0,1,479,102C480.4,115.59,476.54,127.6,467,137.6Z"/></svg>